<svg id="Layer_1" data-name="Layer 1" xmlns="http://www.w3.org/2000/svg" viewBox="0 0 624.1 80.8"><g id="Ebene_1" data-name="Ebene 1"><path d="M24.3,53.1a15.24,15.24,0,0,0,.9,5.1c1.7,4.7,6.9,5.6,11.3,5.6,3.9,0,9.8-1.3,9.8-7,0-4-3.3-5.1-16.6-8.8C17.5,44.4,3.6,41.1,3.6,25.6,3.6,7.8,18.8.2,34.6.2,51.3.2,66.1,6.6,66.7,25.3H44.3a5.94,5.94,0,0,0-2.8-6.1,12.32,12.32,0,0,0-7-1.9c-3.2,0-8.5.9-8.5,5.2.5,5.5,11.4,6.7,22.3,9.7S70,40.1,70,54.2c0,20-18.4,26.5-35.6,26.5C25.7,80.7.8,77.6.6,53Z" fill="#d95930"/><path d="M79.3,30.5h21.2l7,28.5h.1l6.9-28.5h21.2V78.9H121.6v-31h-.1L113.1,79H102L93.6,47.9h-.1V79H79.3Z" fill="#d95930"/><path d="M159.5,30.5h14.6l17.6,48.4H176.3l-2-6.9H158.9l-2.2,6.9h-15Zm11.7,31.1-4.3-14.9h-.1l-4.7,14.9Z" fill="#d95930"/><path d="M197.8,30.5h28.4c8.5,0,15.8,4.7,15.8,13.8,0,5-2.3,10.3-7.3,12.1,4.1,1.6,6.6,6,7.1,12.1.2,2.4.3,8.1,1.6,10.4H228.5a30.93,30.93,0,0,1-1.2-7.5c-.4-4.6-.8-9.4-6.7-9.4h-7.9V78.9H197.8V30.5Zm14.9,21.2h7.8c2.8,0,6.6-.5,6.6-4.8,0-3-1.7-4.8-7.4-4.8h-7Z" fill="#d95930"/><path d="M260.8,42.9H247.2V30.5h42V42.9H275.7v36H260.8Z" fill="#d95930"/><path d="M288.1,55.3h21.2V66.4H288.1Z" fill="#d95930"/><path d="M319.8,30.5h28.4c8.5,0,15.8,4.7,15.8,13.8,0,5-2.3,10.3-7.3,12.1,4.1,1.6,6.6,6,7.1,12.1.2,2.4.3,8.1,1.6,10.4H350.5a30.93,30.93,0,0,1-1.2-7.5c-.4-4.6-.8-9.4-6.7-9.4h-7.9V78.9H319.8Zm14.9,21.2h7.8c2.8,0,6.6-.5,6.6-4.8,0-3-1.7-4.8-7.4-4.8h-7Z" fill="#d95930"/><path d="M373.4,30.5h40.1V42.9H388.4v6h22.9V60.5H388.4v6h25.9V78.9H373.5V30.5Z" fill="#d95930"/><path d="M424.5,30.5h25c13.1,0,17.8,9.6,17.8,16.6,0,11.7-7.9,17.2-19,17.2h-8.8V79H424.6V30.5Zm15,22.3h5.8c3.9,0,7.9-.3,7.9-5.2,0-4.4-3.4-4.7-7.1-4.7h-6.6v9.9Z" fill="#d95930"/><path d="M484.1,30.5h14.6l17.6,48.4H500.8l-2-6.9H483.4l-2.2,6.9h-15Zm11.7,31.1-4.4-14.9h-.1l-4.7,14.9Z" fill="#d95930"/><path d="M523,30.5h14.9V78.9H523Z" fill="#d95930"/><path d="M551.9,2h45.2c13.5,0,25.1,7.4,25.1,22,0,8-3.7,16.4-11.5,19.3,6.5,2.5,10.5,9.6,11.3,19.2.3,3.8.4,12.9,2.6,16.5H600.9A52.77,52.77,0,0,1,599,67.1c-.7-7.3-1.3-15-10.7-15H575.7V78.9H552V2Zm23.8,33.6h12.4c4.4,0,10.5-.8,10.5-7.7,0-4.9-2.7-7.6-11.8-7.6H575.7Z" fill="#d95930"/></g><path d="M214.5,3.7a6.47,6.47,0,0,0-.8-.9c-.3-.2-.7-.4-1-.6a5,5,0,0,0-1.2-.2,4.23,4.23,0,0,0-2,.5,3.74,3.74,0,0,0-1.3,1.2,5.09,5.09,0,0,0-.7,1.7,12.31,12.31,0,0,0-.2,2,11.08,11.08,0,0,0,.2,1.9,8.65,8.65,0,0,0,.7,1.7,3.74,3.74,0,0,0,1.3,1.2,3.94,3.94,0,0,0,2,.5,3,3,0,0,0,2.5-1,4.16,4.16,0,0,0,1.1-2.6h3.3a7.67,7.67,0,0,1-.7,2.7,6.18,6.18,0,0,1-1.5,2,5.71,5.71,0,0,1-2.1,1.3,7.66,7.66,0,0,1-2.7.4,7.94,7.94,0,0,1-3.2-.6,6.14,6.14,0,0,1-2.4-1.7,6.14,6.14,0,0,1-1.5-2.6,8.59,8.59,0,0,1-.5-3.2,11.42,11.42,0,0,1,.5-3.3,9.34,9.34,0,0,1,1.5-2.6,10.77,10.77,0,0,1,2.4-1.8,8.29,8.29,0,0,1,3.2-.6,6.9,6.9,0,0,1,2.5.4A5.29,5.29,0,0,1,216,.6a6.55,6.55,0,0,1,1.5,1.8,6.11,6.11,0,0,1,.7,2.4h-3.3A3.58,3.58,0,0,0,214.5,3.7Z" fill="#3a3e3e"/><path d="M234.1-.5V2.4h-8.3V5.8h7.6V8.5h-7.6v3.8h8.5v2.9H222.4V-.5Z" fill="#3a3e3e"/><path d="M241.7-.5,248.3,10h0V-.5h3.2V15.2H248L241.5,4.7h0V15.2h-3.2V-.5Z" fill="#3a3e3e"/><path d="M255,2.4V-.5h12.9V2.4h-4.7V15.2h-3.5V2.4Z" fill="#3a3e3e"/><path d="M283-.5V2.4h-8.3V5.8h7.6V8.5h-7.6v3.8h8.5v2.9H271.3V-.5Z" fill="#3a3e3e"/><path d="M295.7-.5a5.82,5.82,0,0,1,1.9.3,4.62,4.62,0,0,1,1.5.9,4.19,4.19,0,0,1,.9,1.4,4.67,4.67,0,0,1,.3,1.7,4.75,4.75,0,0,1-.6,2.4,3.24,3.24,0,0,1-1.9,1.5h0a3.7,3.7,0,0,1,1.1.5,2.18,2.18,0,0,1,.7.9,3.58,3.58,0,0,1,.4,1.1c.1.4.1.8.2,1.2v.9a3.4,3.4,0,0,0,.1,1,3,3,0,0,0,.2,1,2,2,0,0,0,.4.8h-3.5a8,8,0,0,1-.4-1.8c-.1-.7-.1-1.3-.2-2a3.76,3.76,0,0,0-.7-1.8,2.55,2.55,0,0,0-1.9-.6h-3.5V15h-3.5V-.5Zm-1.3,7.1a3,3,0,0,0,1.8-.5,2.2,2.2,0,0,0,.6-1.7,2.2,2.2,0,0,0-.6-1.7,2.43,2.43,0,0,0-1.8-.5h-3.8V6.6Z" fill="#3a3e3e"/><path d="M319.3-.5a8.21,8.21,0,0,1,2.8.5,5.74,5.74,0,0,1,2.3,1.5,8.17,8.17,0,0,1,1.5,2.4,9,9,0,0,1,.5,3.4,11.24,11.24,0,0,1-.4,3.2,6.61,6.61,0,0,1-1.3,2.5,6.2,6.2,0,0,1-2.2,1.7,7.45,7.45,0,0,1-3.1.6h-6.8V-.5ZM319,12.3a7.72,7.72,0,0,0,1.5-.2,3.53,3.53,0,0,0,1.3-.8,3.77,3.77,0,0,0,.9-1.5,6.87,6.87,0,0,0,.3-2.2,12.48,12.48,0,0,0-.2-2.1,4,4,0,0,0-.8-1.6,2.81,2.81,0,0,0-1.4-1,6.54,6.54,0,0,0-2.1-.4H316v9.9h3Z" fill="#3a3e3e"/><path d="M333.9-.5V15.2h-3.5V-.5Z" fill="#3a3e3e"/><path d="M350.3-.5V2.4H342V5.8h7.6V8.5H342v3.8h8.5v2.9H338.6V-.5Z" fill="#3a3e3e"/><path d="M361.9-.5a12.31,12.31,0,0,1,2,.2,4.42,4.42,0,0,1,1.6.6,2.94,2.94,0,0,1,1,1.2,4.78,4.78,0,0,1,.4,1.8,3.94,3.94,0,0,1-.5,2,4.17,4.17,0,0,1-1.6,1.3A4,4,0,0,1,367,8.1a4.09,4.09,0,0,1,.7,2.5,4.65,4.65,0,0,1-.5,2.1,3.33,3.33,0,0,1-1.2,1.4,7.5,7.5,0,0,1-1.8.8,7.61,7.61,0,0,1-2.1.3h-7.6V-.5Zm-.5,6.3a2.41,2.41,0,0,0,1.5-.4,1.68,1.68,0,0,0,.6-1.4,2,2,0,0,0-.2-.9,1.21,1.21,0,0,0-.5-.5,6.89,6.89,0,0,0-.8-.3,2.77,2.77,0,0,0-.9-.1h-3.2V5.9h3.5Zm.2,6.7a3.4,3.4,0,0,0,1-.1,6.89,6.89,0,0,0,.8-.3l.6-.6a1.5,1.5,0,0,0,.2-1,1.83,1.83,0,0,0-.7-1.7,3.45,3.45,0,0,0-1.8-.5h-3.8v4.3h3.7Z" fill="#3a3e3e"/><path d="M383.2,14a7.39,7.39,0,0,1-4.9,1.6,7.18,7.18,0,0,1-4.9-1.5c-1.2-1-1.7-2.6-1.7-4.8V-.5h3.5V9.3a6.15,6.15,0,0,0,.1,1.3,2.22,2.22,0,0,0,.5,1.1,2.72,2.72,0,0,0,1,.8,4,4,0,0,0,1.7.3,3.67,3.67,0,0,0,2.6-.8,3.68,3.68,0,0,0,.7-2.6V-.4h3.5V9.4A7.34,7.34,0,0,1,383.2,14Z" fill="#3a3e3e"/><path d="M398-.5a5.82,5.82,0,0,1,1.9.3,4.62,4.62,0,0,1,1.5.9,4.19,4.19,0,0,1,.9,1.4,4.67,4.67,0,0,1,.3,1.7,4.75,4.75,0,0,1-.6,2.4,3.24,3.24,0,0,1-1.9,1.5h0a3.7,3.7,0,0,1,1.1.5,2.18,2.18,0,0,1,.7.9,4.87,4.87,0,0,1,.4,1.1c.1.4.1.8.2,1.2v.9a3.4,3.4,0,0,0,.1,1,3,3,0,0,0,.2,1,2,2,0,0,0,.4.8h-3.5a8,8,0,0,1-.4-1.8c-.1-.7-.1-1.3-.2-2a3.76,3.76,0,0,0-.7-1.8,2.55,2.55,0,0,0-1.9-.6H393V15h-3.5V-.5Zm-1.2,7.1a3,3,0,0,0,1.8-.5,2.2,2.2,0,0,0,.6-1.7,2.2,2.2,0,0,0-.6-1.7,3,3,0,0,0-1.8-.5H393V6.6Z" fill="#3a3e3e"/><path d="M416.4,15.1a5.93,5.93,0,0,1-2.3.5,7.94,7.94,0,0,1-3.2-.6,6.14,6.14,0,0,1-2.4-1.7,6.14,6.14,0,0,1-1.5-2.6,8.59,8.59,0,0,1-.5-3.2,11.42,11.42,0,0,1,.5-3.3,9.34,9.34,0,0,1,1.5-2.6,10.77,10.77,0,0,1,2.4-1.8,8.29,8.29,0,0,1,3.2-.6,5.87,5.87,0,0,1,2.3.4,4.9,4.9,0,0,1,2,1.1,6.12,6.12,0,0,1,1.5,1.7,6.11,6.11,0,0,1,.7,2.4h-3.3a3.4,3.4,0,0,0-1.2-2,2.13,2.13,0,0,0-1.9-.8,4.23,4.23,0,0,0-2,.5,3.74,3.74,0,0,0-1.3,1.2,5.09,5.09,0,0,0-.7,1.7,6.48,6.48,0,0,0-.2,2,11.08,11.08,0,0,0,.2,1.9,8.65,8.65,0,0,0,.7,1.7,3.74,3.74,0,0,0,1.3,1.2,3.94,3.94,0,0,0,2,.5,4,4,0,0,0,2.7-.9A3.88,3.88,0,0,0,418,9.3h-3.5V6.7h6.6v8.5h-2.2l-.4-1.8A6.56,6.56,0,0,1,416.4,15.1Z" fill="#3a3e3e"/></svg>