<svg id="Layer_1" data-name="Layer 1" xmlns="http://www.w3.org/2000/svg" viewBox="0 0 624.06 162.02"><g id="Ebene_1" data-name="Ebene 1"><g style="isolation:isolate"><g style="isolation:isolate"><path d="M25.79,53.27a14.16,14.16,0,0,0,.86,5.06C28.38,63,33.55,63.94,38,63.94c3.88,0,9.81-1.29,9.81-7,0-4-3.34-5.06-16.6-8.84C19,44.64,5.09,41.3,5.09,25.78,5.09,8,20.29.34,36.14.34,52.85.34,67.62,6.7,68.26,25.45H45.84A5.88,5.88,0,0,0,43,19.31a12.32,12.32,0,0,0-7-1.94c-3.23,0-8.51.86-8.51,5.17C28,28,38.94,29.23,49.83,32.25S71.5,40.33,71.5,54.45C71.5,74.5,53.06,81,35.92,81c-8.73,0-33.63-3.12-33.85-27.7Z" transform="translate(-2.07 81.04)" fill="#e47025"/></g><g style="isolation:isolate"><path d="M80.8,30.71H102L109,59.2h.13L116,30.71h21.23V79.14H123.12V48.08H123l-8.41,31.06H103.45L95,48.08h-.13V79.14H80.8Z" transform="translate(-2.07 81.04)" fill="#e47025"/><path d="M161,30.71h14.58l17.64,48.43H177.78l-2-6.92h-15.4l-2.17,6.92h-15Zm11.73,31.13-4.34-14.92h-.13l-4.68,14.92Z" transform="translate(-2.07 81.04)" fill="#e47025"/></g><g style="isolation:isolate"><path d="M199.28,30.71h28.41c8.48,0,15.81,4.68,15.81,13.84,0,5-2.31,10.31-7.26,12.14,4.07,1.56,6.58,6,7.12,12.07.21,2.38.27,8.14,1.63,10.38H230.07a34.48,34.48,0,0,1-1.22-7.46c-.41-4.61-.82-9.43-6.72-9.43H214.2V79.14H199.28ZM214.2,51.87H222c2.78,0,6.58-.47,6.58-4.81,0-3.05-1.7-4.82-7.4-4.82h-7Z" transform="translate(-2.07 81.04)" fill="#e47025"/></g><g style="isolation:isolate"><path d="M262.35,43.12H248.79V30.71h42V43.12H277.27v36H262.35Z" transform="translate(-2.07 81.04)" fill="#e47025"/></g><g style="isolation:isolate"><path d="M289.62,55.47h21.23V66.59H289.62Z" transform="translate(-2.07 81.04)" fill="#e47025"/><path d="M321.29,30.71h28.42c8.48,0,15.8,4.68,15.8,13.84,0,5-2.3,10.31-7.26,12.14,4.07,1.56,6.58,6,7.13,12.07.2,2.38.27,8.14,1.62,10.38H352.08a35.1,35.1,0,0,1-1.22-7.46c-.41-4.61-.81-9.43-6.71-9.43h-7.94V79.14H321.29Zm14.92,21.16H344c2.78,0,6.58-.47,6.58-4.81,0-3.05-1.7-4.82-7.39-4.82h-7Z" transform="translate(-2.07 81.04)" fill="#e47025"/><path d="M374.94,30.71H415V43.12H389.86v6h22.85V60.69H389.86v6h25.91V79.14H374.94Z" transform="translate(-2.07 81.04)" fill="#e47025"/></g><g style="isolation:isolate"><path d="M426.07,30.71h25c13.15,0,17.77,9.63,17.77,16.55,0,11.74-7.87,17.23-19,17.23H441V79.14H426.07ZM441,53h5.76c3.87,0,7.94-.27,7.94-5.16,0-4.4-3.39-4.68-7.06-4.68H441Z" transform="translate(-2.07 81.04)" fill="#e47025"/></g><g style="isolation:isolate"><path d="M485.62,30.71H500.2l17.63,48.43H502.37l-2-6.92H484.94l-2.17,6.92h-15Zm11.73,31.13L493,46.92h-.14l-4.68,14.92Z" transform="translate(-2.07 81.04)" fill="#e47025"/></g><g style="isolation:isolate"><path d="M524.55,30.71h14.92V79.14H524.55Z" transform="translate(-2.07 81.04)" fill="#e47025"/></g><g style="isolation:isolate"><path d="M553.47,2.17h45.17c13.48,0,25.12,7.44,25.12,22,0,8-3.66,16.39-11.53,19.3,6.47,2.48,10.45,9.59,11.32,19.19.32,3.77.43,12.93,2.58,16.49H602.42a55.1,55.1,0,0,1-1.94-11.86c-.65-7.33-1.3-15-10.68-15H577.19V79.14H553.47ZM577.19,35.8h12.4c4.42,0,10.46-.75,10.46-7.65,0-4.85-2.7-7.65-11.76-7.65h-11.1Z" transform="translate(-2.07 81.04)" fill="#e47025"/></g></g><g style="isolation:isolate"><path d="M219,6.27a3.54,3.54,0,0,0-.77-.87,3.66,3.66,0,0,0-1-.58,3.6,3.6,0,0,0-1.22-.21,4,4,0,0,0-2,.45,3.63,3.63,0,0,0-1.31,1.21A5.13,5.13,0,0,0,211.9,8a8.82,8.82,0,0,0-.23,2,8.14,8.14,0,0,0,.23,1.92,5.1,5.1,0,0,0,.74,1.68,3.69,3.69,0,0,0,1.31,1.2,4,4,0,0,0,2,.45,3.21,3.21,0,0,0,2.47-1,4.45,4.45,0,0,0,1.08-2.55h3.34a8,8,0,0,1-.68,2.66,6.48,6.48,0,0,1-1.45,2,6,6,0,0,1-2.11,1.27,7.75,7.75,0,0,1-2.65.44,8.17,8.17,0,0,1-3.24-.62,6.9,6.9,0,0,1-2.42-1.73,7.56,7.56,0,0,1-1.52-2.58,9.45,9.45,0,0,1-.53-3.19,9.82,9.82,0,0,1,.53-3.26,7.74,7.74,0,0,1,1.52-2.62,6.85,6.85,0,0,1,2.42-1.76,8,8,0,0,1,3.24-.64,7.9,7.9,0,0,1,2.45.38,6.87,6.87,0,0,1,2.06,1.08,5.84,5.84,0,0,1,1.5,1.77,6.19,6.19,0,0,1,.75,2.42h-3.34A2.9,2.9,0,0,0,219,6.27Z" transform="translate(-2.07 81.04)" fill="#3a3e3e"/><path d="M238.87,2.09V5h-8.28V8.34h7.6V11h-7.6v3.84H239v2.9H227.15V2.09Z" transform="translate(-2.07 81.04)" fill="#3a3e3e"/><path d="M246.77,2.09l6.54,10.51h0V2.09h3.23V17.76h-3.45L246.61,7.27h0V17.76h-3.23V2.09Z" transform="translate(-2.07 81.04)" fill="#3a3e3e"/><path d="M260.35,5V2.09H273.2V5h-4.7V17.76h-3.45V5Z" transform="translate(-2.07 81.04)" fill="#3a3e3e"/><path d="M288.69,2.09V5h-8.27V8.34H288V11h-7.59v3.84h8.45v2.9H277V2.09Z" transform="translate(-2.07 81.04)" fill="#3a3e3e"/><path d="M301.62,2.09a5,5,0,0,1,1.9.34,4.35,4.35,0,0,1,1.45.93,4.08,4.08,0,0,1,.92,1.37,4.45,4.45,0,0,1,.32,1.68,4.78,4.78,0,0,1-.58,2.39,3.63,3.63,0,0,1-1.9,1.54v0a2.75,2.75,0,0,1,1,.54,2.85,2.85,0,0,1,.68.86,3.81,3.81,0,0,1,.39,1.09,9.55,9.55,0,0,1,.16,1.18c0,.25,0,.54.05.88s0,.68.07,1a7.71,7.71,0,0,0,.18,1,2.35,2.35,0,0,0,.36.8h-3.45a6.31,6.31,0,0,1-.35-1.78c0-.69-.11-1.34-.2-2a3.07,3.07,0,0,0-.74-1.8,2.57,2.57,0,0,0-1.87-.57h-3.44v6.12h-3.45V2.09Zm-1.23,7.09a2.63,2.63,0,0,0,1.78-.53,2.2,2.2,0,0,0,.59-1.71,2.11,2.11,0,0,0-.59-1.66,2.68,2.68,0,0,0-1.78-.51h-3.77V9.18Z" transform="translate(-2.07 81.04)" fill="#3a3e3e"/><path d="M330.79,2.09V5h-8.27V8.34h7.59V11h-7.59v3.84H331v2.9h-11.9V2.09Z" transform="translate(-2.07 81.04)" fill="#3a3e3e"/><path d="M343.72,2.09a5,5,0,0,1,1.9.34,4.35,4.35,0,0,1,1.45.93A4.08,4.08,0,0,1,348,4.73a4.45,4.45,0,0,1,.32,1.68,4.78,4.78,0,0,1-.58,2.39,3.63,3.63,0,0,1-1.9,1.54v0a2.75,2.75,0,0,1,1.05.54,2.85,2.85,0,0,1,.68.86,3.81,3.81,0,0,1,.39,1.09,9.55,9.55,0,0,1,.16,1.18c0,.25,0,.54,0,.88s0,.68.08,1a7.71,7.71,0,0,0,.18,1,2.35,2.35,0,0,0,.36.8h-3.45A6.31,6.31,0,0,1,345,16c0-.69-.11-1.34-.2-2a3.07,3.07,0,0,0-.74-1.8,2.57,2.57,0,0,0-1.87-.57h-3.44v6.12h-3.45V2.09Zm-1.23,7.09a2.63,2.63,0,0,0,1.78-.53,2.2,2.2,0,0,0,.59-1.71,2.11,2.11,0,0,0-.59-1.66,2.68,2.68,0,0,0-1.78-.51h-3.77V9.18Z" transform="translate(-2.07 81.04)" fill="#3a3e3e"/><path d="M359.85,2.09a8.11,8.11,0,0,1,2.82.48A6.1,6.1,0,0,1,364.93,4a6.67,6.67,0,0,1,1.5,2.41A9.77,9.77,0,0,1,367,9.84a11,11,0,0,1-.43,3.16,7.14,7.14,0,0,1-1.33,2.5A6.29,6.29,0,0,1,363,17.16a7.53,7.53,0,0,1-3.13.6h-6.76V2.09Zm-.24,12.77a4.45,4.45,0,0,0,1.45-.24,3.15,3.15,0,0,0,1.25-.8,4,4,0,0,0,.88-1.46,6.39,6.39,0,0,0,.33-2.19A9.3,9.3,0,0,0,363.29,8a4.36,4.36,0,0,0-.76-1.64,3.34,3.34,0,0,0-1.39-1A5.6,5.6,0,0,0,359,5h-2.46v9.87Z" transform="translate(-2.07 81.04)" fill="#3a3e3e"/><path d="M374.78,2.09V17.76h-3.45V2.09Z" transform="translate(-2.07 81.04)" fill="#3a3e3e"/><path d="M383.21,2.09l6.54,10.51h0V2.09H393V17.76h-3.45L383.05,7.27h0V17.76h-3.23V2.09Z" transform="translate(-2.07 81.04)" fill="#3a3e3e"/><path d="M407.31,17.64a5.87,5.87,0,0,1-2.26.47,8.17,8.17,0,0,1-3.24-.62,7,7,0,0,1-2.43-1.73,7.7,7.7,0,0,1-1.51-2.58,9.45,9.45,0,0,1-.53-3.19,9.82,9.82,0,0,1,.53-3.26,7.89,7.89,0,0,1,1.51-2.62,7,7,0,0,1,2.43-1.76,8,8,0,0,1,3.24-.64,7.44,7.44,0,0,1,2.34.37,6.61,6.61,0,0,1,2,1.06,5.87,5.87,0,0,1,1.5,1.74,5.74,5.74,0,0,1,.73,2.37h-3.3a3.3,3.3,0,0,0-1.18-2,3.46,3.46,0,0,0-2.13-.66,4,4,0,0,0-2,.45,3.63,3.63,0,0,0-1.31,1.21A5.13,5.13,0,0,0,401,8a8.82,8.82,0,0,0-.23,2,8.14,8.14,0,0,0,.23,1.92,5.1,5.1,0,0,0,.74,1.68,3.69,3.69,0,0,0,1.31,1.2,4,4,0,0,0,2,.45,3.72,3.72,0,0,0,2.64-.87,3.78,3.78,0,0,0,1.09-2.51h-3.47V9.29h6.59v8.47h-2.2L409.35,16A5.16,5.16,0,0,1,407.31,17.64Z" transform="translate(-2.07 81.04)" fill="#3a3e3e"/></g></g><text x="-2.07" y="81.04"/></svg>