<svg id="Layer_1" data-name="Layer 1" xmlns="http://www.w3.org/2000/svg" viewBox="0 0 624.06 80.77"><g id="Ebene_1" data-name="Ebene 1"><path d="M24.27,53.06a14.1,14.1,0,0,0,.86,5.06c1.73,4.67,6.9,5.61,11.35,5.61,3.88,0,9.81-1.29,9.81-7,0-4-3.34-5.06-16.6-8.84C17.48,44.43,3.57,41.09,3.57,25.57,3.57,7.79,18.77.13,34.62.13,51.33.13,66.1,6.49,66.74,25.24H44.32a5.88,5.88,0,0,0-2.84-6.14,12.32,12.32,0,0,0-7-1.94c-3.23,0-8.51.86-8.51,5.17C26.48,27.79,37.42,29,48.31,32S70,40.12,70,54.24C70,74.29,51.54,80.79,34.4,80.79,25.67,80.79.77,77.67.55,53.09Z" fill="#d95930"/><path d="M79.28,30.5h21.2l7,28.49h.13l6.87-28.49h21.23V78.93H121.6V47.87h-.12l-8.41,31.06H101.93L93.48,47.87h-.13V78.93H79.28Z" fill="#d95930"/><path d="M159.48,30.5h14.58L191.7,78.93H176.26l-2-6.92h-15.4l-2.17,6.92h-15Zm11.73,31.13-4.34-14.92h-.13l-4.68,14.92Z" fill="#d95930"/><path d="M197.76,30.5h28.41c8.48,0,15.81,4.68,15.81,13.84,0,5-2.31,10.31-7.26,12.14,4.07,1.56,6.58,6,7.12,12.07.21,2.38.27,8.14,1.63,10.38H228.55a34.38,34.38,0,0,1-1.22-7.46c-.41-4.61-.82-9.43-6.72-9.43h-7.93V78.93H197.76Zm14.92,21.16h7.8c2.78,0,6.58-.47,6.58-4.81,0-3.05-1.7-4.82-7.4-4.82h-7Z" fill="#d95930"/><path d="M260.83,42.91H247.27V30.5h42V42.91H275.75v36H260.83Z" fill="#d95930"/><path d="M288.1,55.26h21.23V66.38H288.1Z" fill="#d95930"/><path d="M319.77,30.5h28.42c8.48,0,15.8,4.68,15.8,13.84,0,5-2.3,10.31-7.26,12.14,4.07,1.56,6.58,6,7.13,12.07.2,2.38.27,8.14,1.62,10.38H350.56a35,35,0,0,1-1.22-7.46c-.41-4.61-.81-9.43-6.71-9.43h-7.94V78.93H319.77Zm14.92,21.16h7.79c2.78,0,6.58-.47,6.58-4.81,0-3.05-1.7-4.82-7.39-4.82h-7Z" fill="#d95930"/><path d="M373.42,30.5h40.06V42.91H388.34v6h22.85V60.48H388.34v6h25.91V78.93H373.42Z" fill="#d95930"/><path d="M424.55,30.5h25c13.15,0,17.77,9.63,17.77,16.55,0,11.74-7.87,17.23-19,17.23h-8.84V78.93H424.55Zm14.93,22.29h5.76c3.87,0,7.94-.27,7.94-5.16,0-4.4-3.39-4.68-7.06-4.68h-6.64Z" fill="#d95930"/><path d="M484.1,30.5h14.58l17.63,48.43H500.85l-2-6.92H483.42l-2.17,6.92h-15Zm11.73,31.13-4.35-14.92h-.14l-4.68,14.92Z" fill="#d95930"/><path d="M523,30.5H538V78.93H523Z" fill="#d95930"/><path d="M552,2h45.17c13.48,0,25.12,7.44,25.12,22,0,8-3.66,16.39-11.53,19.3,6.47,2.48,10.45,9.59,11.32,19.19.32,3.77.43,12.93,2.58,16.49H600.9A54.8,54.8,0,0,1,599,67.08c-.65-7.33-1.3-15-10.68-15H575.67V78.93H552Zm23.72,33.63h12.4c4.42,0,10.46-.75,10.46-7.65,0-4.85-2.7-7.65-11.76-7.65h-11.1Z" fill="#d95930"/></g><path d="M226.75,3.66a3.54,3.54,0,0,0-.77-.87A3.66,3.66,0,0,0,223.71,2a4,4,0,0,0-2,.45,3.84,3.84,0,0,0-1.32,1.21,5.39,5.39,0,0,0-.74,1.73,8.76,8.76,0,0,0-.23,2,8.29,8.29,0,0,0,.23,1.93,5.31,5.31,0,0,0,.74,1.68,3.81,3.81,0,0,0,1.32,1.2,4,4,0,0,0,2,.45,3.2,3.2,0,0,0,2.48-1,4.52,4.52,0,0,0,1.09-2.55h3.34a8.19,8.19,0,0,1-.68,2.66,6.52,6.52,0,0,1-1.45,2,6.31,6.31,0,0,1-2.12,1.27,7.77,7.77,0,0,1-2.66.44,8.17,8.17,0,0,1-3.24-.62A7,7,0,0,1,218,13.18a7.7,7.7,0,0,1-1.52-2.59,9.51,9.51,0,0,1-.53-3.2,9.92,9.92,0,0,1,.53-3.27A7.74,7.74,0,0,1,218,1.5a6.85,6.85,0,0,1,2.43-1.76,8.42,8.42,0,0,1,5.69-.27A6.61,6.61,0,0,1,228.23.56a6,6,0,0,1,1.51,1.77,6.25,6.25,0,0,1,.75,2.42h-3.35A3,3,0,0,0,226.75,3.66Z" fill="#3a3e3e"/><path d="M246.37-.53V2.38h-8.29V5.74h7.61V8.43h-7.61v3.85h8.47v2.9H234.62V-.53Z" fill="#3a3e3e"/><path d="M254-.53,260.52,10h0V-.53h3.24V15.18h-3.46L253.81,4.66h-.05V15.18h-3.23V-.53Z" fill="#3a3e3e"/><path d="M267.25,2.38V-.53h12.87V2.38h-4.71v12.8H272V2.38Z" fill="#3a3e3e"/><path d="M295.32-.53V2.38H287V5.74h7.61V8.43H287v3.85h8.47v2.9H283.57V-.53Z" fill="#3a3e3e"/><path d="M308-.53a5.19,5.19,0,0,1,1.9.34,4.28,4.28,0,0,1,1.45.94,3.88,3.88,0,0,1,.93,1.37,4.46,4.46,0,0,1,.32,1.69A4.68,4.68,0,0,1,312,6.2a3.59,3.59,0,0,1-1.9,1.54v0a2.59,2.59,0,0,1,1.06.54,3,3,0,0,1,.68.85,3.91,3.91,0,0,1,.38,1.09,10,10,0,0,1,.17,1.19c0,.25,0,.54,0,.88s0,.68.08,1a7.71,7.71,0,0,0,.18,1,2.35,2.35,0,0,0,.36.8h-3.45a6,6,0,0,1-.36-1.78c0-.69-.11-1.35-.2-2a3.1,3.1,0,0,0-.74-1.81A2.58,2.58,0,0,0,306.39,9h-3.46v6.14h-3.45V-.53Zm-1.23,7.11a2.63,2.63,0,0,0,1.78-.53,2.17,2.17,0,0,0,.59-1.72,2.09,2.09,0,0,0-.59-1.66,2.68,2.68,0,0,0-1.78-.51h-3.79V6.58Z" fill="#3a3e3e"/><path d="M328.23-.53v6h6.36v-6H338V15.18h-3.45V8.4h-6.36v6.78h-3.45V-.53Z" fill="#3a3e3e"/><path d="M350.56-.53l5.88,15.71h-3.59l-1.19-3.5h-5.87l-1.23,3.5h-3.48L347-.53Zm.2,9.64-2-5.77h0l-2.05,5.77Z" fill="#3a3e3e"/><path d="M362.88-.53,369.44,10h0V-.53h3.24V15.18h-3.46L362.73,4.66h-.05V15.18h-3.23V-.53Z" fill="#3a3e3e"/><path d="M385.24-.53l5.87,15.71h-3.59l-1.19-3.5h-5.87l-1.23,3.5h-3.48L381.69-.53Zm.19,9.64-2-5.77h0l-2.05,5.77Z" fill="#3a3e3e"/><path d="M405.67,14a7.28,7.28,0,0,1-4.93,1.55A7.19,7.19,0,0,1,395.81,14a6,6,0,0,1-1.75-4.75V-.53h3.45V9.24a7.45,7.45,0,0,0,.11,1.25,2.54,2.54,0,0,0,.46,1.09,2.46,2.46,0,0,0,1,.77,4,4,0,0,0,1.68.3,3.25,3.25,0,0,0,2.56-.83,3.9,3.9,0,0,0,.7-2.58V-.53h3.45V9.24A5.93,5.93,0,0,1,405.67,14Z" fill="#3a3e3e"/></svg>