<svg id="Layer_1" data-name="Layer 1" xmlns="http://www.w3.org/2000/svg" viewBox="0 0 624.06 80.77"><g id="Ebene_1" data-name="Ebene 1"><path d="M24.27,53.06a14.1,14.1,0,0,0,.86,5.06c1.73,4.67,6.9,5.61,11.35,5.61,3.88,0,9.81-1.29,9.81-7,0-4-3.34-5.06-16.6-8.84C17.48,44.43,3.57,41.09,3.57,25.57,3.57,7.79,18.77.13,34.62.13,51.33.13,66.1,6.49,66.74,25.24H44.32a5.88,5.88,0,0,0-2.84-6.14,12.32,12.32,0,0,0-7-1.94c-3.23,0-8.51.86-8.51,5.17C26.48,27.79,37.42,29,48.31,32S70,40.12,70,54.24C70,74.29,51.54,80.79,34.4,80.79,25.67,80.79.77,77.67.55,53.09Z" fill="#d95930"/><path d="M79.28,30.5h21.2l7,28.49h.13l6.87-28.49h21.23V78.93H121.6V47.87h-.12l-8.41,31.06H101.93L93.48,47.87h-.13V78.93H79.28Z" fill="#d95930"/><path d="M159.48,30.5h14.58L191.7,78.93H176.26l-2-6.92h-15.4l-2.17,6.92h-15Zm11.73,31.13-4.34-14.92h-.13l-4.68,14.92Z" fill="#d95930"/><path d="M197.76,30.5h28.41c8.48,0,15.81,4.68,15.81,13.84,0,5-2.31,10.31-7.26,12.14,4.07,1.56,6.58,6,7.12,12.07.21,2.38.27,8.14,1.63,10.38H228.55a34.38,34.38,0,0,1-1.22-7.46c-.41-4.61-.82-9.43-6.72-9.43h-7.93V78.93H197.76Zm14.92,21.16h7.8c2.78,0,6.58-.47,6.58-4.81,0-3.05-1.7-4.82-7.4-4.82h-7Z" fill="#d95930"/><path d="M260.83,42.91H247.27V30.5h42V42.91H275.75v36H260.83Z" fill="#d95930"/><path d="M288.1,55.26h21.23V66.38H288.1Z" fill="#d95930"/><path d="M319.77,30.5h28.42c8.48,0,15.8,4.68,15.8,13.84,0,5-2.3,10.31-7.26,12.14,4.07,1.56,6.58,6,7.13,12.07.2,2.38.27,8.14,1.62,10.38H350.56a35,35,0,0,1-1.22-7.46c-.41-4.61-.81-9.43-6.71-9.43h-7.94V78.93H319.77Zm14.92,21.16h7.79c2.78,0,6.58-.47,6.58-4.81,0-3.05-1.7-4.82-7.39-4.82h-7Z" fill="#d95930"/><path d="M373.42,30.5h40.06V42.91H388.34v6h22.85V60.48H388.34v6h25.91V78.93H373.42Z" fill="#d95930"/><path d="M424.55,30.5h25c13.15,0,17.77,9.63,17.77,16.55,0,11.74-7.87,17.23-19,17.23h-8.84V78.93H424.55Zm14.93,22.29h5.76c3.87,0,7.94-.27,7.94-5.16,0-4.4-3.39-4.68-7.06-4.68h-6.64Z" fill="#d95930"/><path d="M484.1,30.5h14.58l17.63,48.43H500.85l-2-6.92H483.42l-2.17,6.92h-15Zm11.73,31.13-4.35-14.92h-.14l-4.68,14.92Z" fill="#d95930"/><path d="M523,30.5H538V78.93H523Z" fill="#d95930"/><path d="M552,2h45.17c13.48,0,25.12,7.44,25.12,22,0,8-3.66,16.39-11.53,19.3,6.47,2.48,10.45,9.59,11.32,19.19.32,3.77.43,12.93,2.58,16.49H600.9A54.8,54.8,0,0,1,599,67.08c-.65-7.33-1.3-15-10.68-15H575.67V78.93H552Zm23.72,33.63h12.4c4.42,0,10.46-.75,10.46-7.65,0-4.85-2.7-7.65-11.76-7.65h-11.1Z" fill="#d95930"/></g><path d="M216.76,3.66a3.54,3.54,0,0,0-.77-.87,3.58,3.58,0,0,0-1.05-.58A3.51,3.51,0,0,0,213.72,2a4.08,4.08,0,0,0-2,.45,3.84,3.84,0,0,0-1.32,1.21,5.37,5.37,0,0,0-.73,1.73,8.23,8.23,0,0,0-.23,2,7.78,7.78,0,0,0,.23,1.93,5.29,5.29,0,0,0,.73,1.68,3.81,3.81,0,0,0,1.32,1.2,4.08,4.08,0,0,0,2,.45,3.2,3.2,0,0,0,2.48-1,4.46,4.46,0,0,0,1.09-2.55h3.34a8,8,0,0,1-.68,2.66,6.52,6.52,0,0,1-1.45,2,6.26,6.26,0,0,1-2.11,1.27,7.87,7.87,0,0,1-2.67.44,8,8,0,0,1-3.24-.63,6.88,6.88,0,0,1-2.43-1.72,7.7,7.7,0,0,1-1.52-2.59,9.51,9.51,0,0,1-.53-3.2,9.92,9.92,0,0,1,.53-3.27,7.74,7.74,0,0,1,1.52-2.62,6.85,6.85,0,0,1,2.43-1.76,7.84,7.84,0,0,1,3.24-.64,7.92,7.92,0,0,1,2.46.37A6.45,6.45,0,0,1,218.24.56a5.88,5.88,0,0,1,1.51,1.77,6.25,6.25,0,0,1,.75,2.42h-3.34A2.76,2.76,0,0,0,216.76,3.66Z" fill="#3a3e3e"/><path d="M236.38-.53V2.38h-8.29V5.74h7.61V8.43h-7.61v3.85h8.47v2.9H224.64V-.53Z" fill="#3a3e3e"/><path d="M244-.53,250.53,10h0V-.53h3.24V15.18h-3.46L243.82,4.66h0V15.18h-3.24V-.53Z" fill="#3a3e3e"/><path d="M257.26,2.38V-.53h12.87V2.38h-4.71v12.8H262V2.38Z" fill="#3a3e3e"/><path d="M285.33-.53V2.38H277V5.74h7.61V8.43H277v3.85h8.47v2.9H273.59V-.53Z" fill="#3a3e3e"/><path d="M298-.53a5.19,5.19,0,0,1,1.9.34,4.42,4.42,0,0,1,1.46.94,4,4,0,0,1,.92,1.37,4.46,4.46,0,0,1,.32,1.69A4.78,4.78,0,0,1,302,6.2a3.65,3.65,0,0,1-1.91,1.54v0a2.48,2.48,0,0,1,1.06.54,2.81,2.81,0,0,1,.68.85,3.93,3.93,0,0,1,.39,1.09,10,10,0,0,1,.16,1.19c0,.25,0,.54.05.88s0,.68.07,1a7.71,7.71,0,0,0,.18,1,2.35,2.35,0,0,0,.36.8h-3.45a6,6,0,0,1-.35-1.78c-.05-.69-.12-1.35-.2-2a3.17,3.17,0,0,0-.75-1.81A2.58,2.58,0,0,0,296.4,9H293v6.14h-3.46V-.53Zm-1.23,7.11a2.61,2.61,0,0,0,1.78-.53,2.17,2.17,0,0,0,.59-1.72,2.09,2.09,0,0,0-.59-1.66,2.66,2.66,0,0,0-1.78-.51H293V6.58Z" fill="#3a3e3e"/><path d="M323.26-.53a5.19,5.19,0,0,1,1.9.34,4.42,4.42,0,0,1,1.46.94,4,4,0,0,1,.92,1.37,4.46,4.46,0,0,1,.32,1.69,4.78,4.78,0,0,1-.58,2.39,3.65,3.65,0,0,1-1.91,1.54v0a2.48,2.48,0,0,1,1.06.54,2.81,2.81,0,0,1,.68.85,4.28,4.28,0,0,1,.39,1.09,10,10,0,0,1,.16,1.19c0,.25,0,.54,0,.88s0,.68.08,1a7.71,7.71,0,0,0,.18,1,2.35,2.35,0,0,0,.36.8h-3.45a6,6,0,0,1-.35-1.78c0-.69-.12-1.35-.2-2a3.17,3.17,0,0,0-.75-1.81A2.58,2.58,0,0,0,321.7,9h-3.46v6.14h-3.45V-.53ZM322,6.58a2.63,2.63,0,0,0,1.78-.53,2.17,2.17,0,0,0,.59-1.72,2.09,2.09,0,0,0-.59-1.66A2.68,2.68,0,0,0,322,2.16h-3.79V6.58Z" fill="#3a3e3e"/><path d="M332.17,4.12a7.74,7.74,0,0,1,1.52-2.62,6.85,6.85,0,0,1,2.43-1.76,8.57,8.57,0,0,1,6.5,0A6.9,6.9,0,0,1,345,1.5a7.74,7.74,0,0,1,1.52,2.62,9.92,9.92,0,0,1,.53,3.27,9.51,9.51,0,0,1-.53,3.2A7.7,7.7,0,0,1,345,13.18a6.93,6.93,0,0,1-2.42,1.72,8.7,8.7,0,0,1-6.5,0,6.88,6.88,0,0,1-2.43-1.72,7.7,7.7,0,0,1-1.52-2.59,9.51,9.51,0,0,1-.53-3.2A9.92,9.92,0,0,1,332.17,4.12Zm3.16,5.2a5.29,5.29,0,0,0,.73,1.68,3.81,3.81,0,0,0,1.32,1.2,4.09,4.09,0,0,0,2,.45,4,4,0,0,0,2-.45,3.64,3.64,0,0,0,1.32-1.2,5.1,5.1,0,0,0,.74-1.68,7.78,7.78,0,0,0,.23-1.93,8.23,8.23,0,0,0-.23-2,5.18,5.18,0,0,0-.74-1.73,3.66,3.66,0,0,0-1.32-1.21,4,4,0,0,0-2-.45,4.09,4.09,0,0,0-2,.45,3.84,3.84,0,0,0-1.32,1.21,5.37,5.37,0,0,0-.73,1.73,8.23,8.23,0,0,0-.23,2A7.78,7.78,0,0,0,335.33,9.32Z" fill="#3a3e3e"/><path d="M357.87-.53a7.88,7.88,0,0,1,2.82.49A6,6,0,0,1,363,1.41a6.48,6.48,0,0,1,1.49,2.42A9.76,9.76,0,0,1,365,7.24a10.7,10.7,0,0,1-.44,3.17,6.82,6.82,0,0,1-1.33,2.5A6.06,6.06,0,0,1,361,14.57a7.41,7.41,0,0,1-3.13.61h-6.78V-.53Zm-.25,12.81a4.52,4.52,0,0,0,1.46-.25,3.22,3.22,0,0,0,1.25-.8,4,4,0,0,0,.88-1.46,6.45,6.45,0,0,0,.33-2.2,9.45,9.45,0,0,0-.23-2.15,4.28,4.28,0,0,0-.76-1.64,3.37,3.37,0,0,0-1.4-1A5.6,5.6,0,0,0,357,2.38h-2.47v9.9Z" fill="#3a3e3e"/><path d="M378.35,15.06a5.92,5.92,0,0,1-2.27.47,8,8,0,0,1-3.24-.63,6.88,6.88,0,0,1-2.43-1.72,7.7,7.7,0,0,1-1.52-2.59,9.51,9.51,0,0,1-.53-3.2,9.92,9.92,0,0,1,.53-3.27,7.74,7.74,0,0,1,1.52-2.62,6.85,6.85,0,0,1,2.43-1.76,7.84,7.84,0,0,1,3.24-.64,7.74,7.74,0,0,1,2.35.36,6.63,6.63,0,0,1,2,1.07A5.9,5.9,0,0,1,382,2.27a5.78,5.78,0,0,1,.72,2.37h-3.3a3.3,3.3,0,0,0-1.18-2A3.47,3.47,0,0,0,376.08,2a4,4,0,0,0-2,.45,3.84,3.84,0,0,0-1.32,1.21A5.62,5.62,0,0,0,372,5.39a8.76,8.76,0,0,0-.23,2A8.29,8.29,0,0,0,372,9.32a5.54,5.54,0,0,0,.74,1.68,3.81,3.81,0,0,0,1.32,1.2,4,4,0,0,0,2,.45,3.73,3.73,0,0,0,2.65-.87,3.74,3.74,0,0,0,1.09-2.52h-3.47V6.69H383v8.49h-2.2l-.36-1.78A5.16,5.16,0,0,1,378.35,15.06Z" fill="#3a3e3e"/><path d="M395.22-.53l5.88,15.71h-3.59l-1.19-3.5h-5.87l-1.23,3.5h-3.48L391.68-.53Zm.2,9.64-2-5.77h0l-2,5.77Z" fill="#3a3e3e"/><path d="M415.66,14a8.65,8.65,0,0,1-9.87,0A6,6,0,0,1,404,9.24V-.53h3.46V9.24a7.45,7.45,0,0,0,.11,1.25,2.54,2.54,0,0,0,.46,1.09,2.48,2.48,0,0,0,1,.77,4,4,0,0,0,1.68.3,3.23,3.23,0,0,0,2.55-.83A3.92,3.92,0,0,0,414,9.24V-.53h3.45V9.24A5.93,5.93,0,0,1,415.66,14Z" fill="#3a3e3e"/></svg>